<svg xmlns="http://www.w3.org/2000/svg" width="1280" height="820" viewBox="0 0 1280 820">
  <rect width="1280" height="820" fill="#f8fafc"/>
  <text x="60" y="70" fill="#0f172a" font-family="Arial, sans-serif" font-size="34" font-weight="700">Training and Diagnostics Pipeline</text>
  <rect x="70" y="140" width="200" height="110" rx="14" fill="#ffffff" stroke="#cbd5e1"/>
  <text x="112" y="188" fill="#1e293b" font-family="Arial, sans-serif" font-size="24" font-weight="700">Datasets</text>
  <text x="102" y="220" fill="#475569" font-family="Arial, sans-serif" font-size="16">Transforms, cache,</text>
  <text x="108" y="244" fill="#475569" font-family="Arial, sans-serif" font-size="16">label noise, loaders</text>
  <rect x="340" y="140" width="220" height="110" rx="14" fill="#ffffff" stroke="#cbd5e1"/>
  <text x="392" y="188" fill="#1e293b" font-family="Arial, sans-serif" font-size="24" font-weight="700">Models</text>
  <text x="370" y="220" fill="#475569" font-family="Arial, sans-serif" font-size="16">Factory + instrumented</text>
  <text x="394" y="244" fill="#475569" font-family="Arial, sans-serif" font-size="16">hook wrapper</text>
  <rect x="630" y="140" width="220" height="110" rx="14" fill="#ffffff" stroke="#cbd5e1"/>
  <text x="690" y="188" fill="#1e293b" font-family="Arial, sans-serif" font-size="24" font-weight="700">Trainer</text>
  <text x="674" y="220" fill="#475569" font-family="Arial, sans-serif" font-size="16">Optimization, eval,</text>
  <text x="695" y="244" fill="#475569" font-family="Arial, sans-serif" font-size="16">logging</text>
  <rect x="920" y="140" width="260" height="110" rx="14" fill="#ffffff" stroke="#cbd5e1"/>
  <text x="982" y="188" fill="#1e293b" font-family="Arial, sans-serif" font-size="24" font-weight="700">Artifacts</text>
  <text x="951" y="220" fill="#475569" font-family="Arial, sans-serif" font-size="16">events.jsonl, TensorBoard,</text>
  <text x="996" y="244" fill="#475569" font-family="Arial, sans-serif" font-size="16">tracker outputs</text>
  <path d="M270 195 L340 195" stroke="#64748b" stroke-width="6"/>
  <path d="M560 195 L630 195" stroke="#64748b" stroke-width="6"/>
  <path d="M850 195 L920 195" stroke="#64748b" stroke-width="6"/>
  <polygon points="332,185 348,195 332,205" fill="#64748b"/>
  <polygon points="622,185 638,195 622,205" fill="#64748b"/>
  <polygon points="912,185 928,195 912,205" fill="#64748b"/>
  <rect x="120" y="360" width="250" height="130" rx="14" fill="#eff6ff" stroke="#93c5fd"/>
  <text x="162" y="404" fill="#1d4ed8" font-family="Arial, sans-serif" font-size="24" font-weight="700">Hooks</text>
  <text x="150" y="436" fill="#1e40af" font-family="Arial, sans-serif" font-size="16">activations, gradients,</text>
  <text x="167" y="460" fill="#1e40af" font-family="Arial, sans-serif" font-size="16">inputs, attention</text>
  <rect x="430" y="360" width="250" height="130" rx="14" fill="#ecfccb" stroke="#84cc16"/>
  <text x="466" y="404" fill="#3f6212" font-family="Arial, sans-serif" font-size="24" font-weight="700">Monitors</text>
  <text x="458" y="436" fill="#4d7c0f" font-family="Arial, sans-serif" font-size="16">activation, gradient,</text>
  <text x="475" y="460" fill="#4d7c0f" font-family="Arial, sans-serif" font-size="16">representation</text>
  <rect x="740" y="360" width="250" height="130" rx="14" fill="#fef3c7" stroke="#f59e0b"/>
  <text x="780" y="404" fill="#92400e" font-family="Arial, sans-serif" font-size="24" font-weight="700">Dashboard</text>
  <text x="782" y="436" fill="#b45309" font-family="Arial, sans-serif" font-size="16">curves, tables,</text>
  <text x="787" y="460" fill="#b45309" font-family="Arial, sans-serif" font-size="16">diagnostic views</text>
  <rect x="430" y="560" width="410" height="150" rx="14" fill="#fee2e2" stroke="#fca5a5"/>
  <text x="468" y="606" fill="#991b1b" font-family="Arial, sans-serif" font-size="24" font-weight="700">Post-run Evaluation</text>
  <text x="468" y="640" fill="#b91c1c" font-family="Arial, sans-serif" font-size="18">Meta-sequence dataset</text>
  <text x="468" y="668" fill="#b91c1c" font-family="Arial, sans-serif" font-size="18">Risk scoring and thresholding</text>
  <text x="468" y="696" fill="#b91c1c" font-family="Arial, sans-serif" font-size="18">Granger-ranked internal signals</text>
  <path d="M450 250 L450 360" stroke="#64748b" stroke-width="5"/>
  <path d="M740 250 L740 360" stroke="#64748b" stroke-width="5"/>
  <path d="M1050 250 L1050 360" stroke="#64748b" stroke-width="5"/>
  <path d="M555 490 L555 560" stroke="#64748b" stroke-width="5"/>
  <path d="M865 490 L865 635 L840 635" stroke="#64748b" stroke-width="5" fill="none"/>
  <path d="M1050 250 L1050 635 L840 635" stroke="#64748b" stroke-width="5" fill="none"/>
</svg>
